<?xml version="1.0" standalone="no"?>
<!DOCTYPE svg PUBLIC "-//W3C//DTD SVG 20010904//EN"
 "http://www.w3.org/TR/2001/REC-SVG-20010904/DTD/svg10.dtd">
<svg version="1.0" xmlns="http://www.w3.org/2000/svg"
 width="512.000000pt" height="512.000000pt" viewBox="0 0 512.000000 512.000000"
 preserveAspectRatio="xMidYMid meet">

<g transform="translate(0.000000,512.000000) scale(0.100000,-0.100000)"
fill="#000000" stroke="none">
<path d="M2320 4349 c-337 -38 -673 -193 -917 -424 -254 -238 -408 -514 -485
-867 -19 -89 -22 -133 -22 -318 0 -185 3 -229 22 -317 129 -593 538 -1056
1097 -1242 187 -62 278 -75 520 -75 190 0 234 3 321 22 301 65 590 218 797
420 93 90 197 216 197 237 0 52 -30 72 -664 441 -347 202 -637 372 -644 379
-11 10 122 90 680 408 732 418 718 408 718 480 0 70 -213 340 -377 477 -351
293 -797 429 -1243 379z m416 -264 c278 -48 539 -178 739 -366 82 -78 192
-206 183 -214 -11 -11 -1349 -770 -1385 -786 -81 -34 -104 -123 -48 -178 17
-16 314 -194 660 -396 347 -202 634 -370 638 -374 5 -5 -24 -36 -63 -70 -191
-164 -404 -270 -653 -323 -138 -29 -388 -31 -527 -4 -294 57 -545 189 -751
395 -163 164 -266 331 -339 550 -211 633 76 1326 676 1631 113 58 273 112 394
133 115 20 363 21 476 2z"/>
<path d="M3622 2765 c-72 -32 -78 -144 -9 -185 18 -11 42 -20 54 -20 90 0 137
112 76 180 -34 36 -76 45 -121 25z"/>
<path d="M4032 2765 c-72 -32 -78 -144 -9 -185 39 -24 70 -25 107 -3 57 33 68
113 23 163 -34 36 -76 45 -121 25z"/>
<path d="M3194 2736 c-39 -39 -44 -77 -18 -127 49 -97 194 -52 194 60 0 48
-55 101 -105 101 -29 0 -45 -8 -71 -34z"/>
</g>
</svg>
